# xmcd
#
# Track frame offsets:
#	150
#	21470
#	38308
#	107257
#	133586
#	153128
#	176703
#	201543
#
# Disc length: 3499 seconds
#
# Revision: 1
# Processed by: cddbd v1.5.2PL0 Copyright (c) Steve Scherf et al.
# Submitted via: EasyCDDAExtractor 10.0.2.1
#
DISCID=5f0da908
DTITLE=Cross Canadian Ragweed - Back To Tulsa... Live And Loud At Cain's Ballr
DTITLE=oom - Disc 2
DYEAR=2006
DGENRE=Country
TTITLE0=Cold Hearted Woman
TTITLE1=Jimmy And Annie
TTITLE2=Wanna Rock and Roll
TTITLE3=17
TTITLE4=Hammer Down
TTITLE5=Alabama
TTITLE6=Blues For You
TTITLE7=Lonely Feeling
EXTD=YEAR: 2006
EXTT0=
EXTT1=
EXTT2=
EXTT3=
EXTT4=
EXTT5=
EXTT6=
EXTT7=
PLAYORDER=
